<?xml version="1.0" encoding="UTF-8"?>
<svg viewBox="0 0 186 186" version="1.1" xmlns="http://www.w3.org/2000/svg" xmlns:xlink="http://www.w3.org/1999/xlink">
    <!-- Generator: sketchtool 50.2 (55047) - http://www.bohemiancoding.com/sketch -->
    <title>557C6F52-778E-439F-9924-B1324EC38BF9</title>
    <desc>Created with sketchtool.</desc>
    <defs></defs>
    <g id="Page-1" stroke="none" stroke-width="1" fill="none" fill-rule="evenodd">
        <g id="proportion" transform="translate(-56.000000, -56.000000)" fill="currentColor">
            <g id="Likebutton-Clap" transform="translate(56.000000, 56.000000)">
                <path d="M82.7406,64.647 C81.5166,64.647 80.2996,64.141 79.4276,63.152 C77.8146,61.323 77.9906,58.534 79.8186,56.921 C92.2836,45.933 97.7966,36.874 98.7746,35.169 C102.4426,28.783 108.3326,25.477 114.5156,26.319 C116.9316,26.648 118.6236,28.874 118.2936,31.289 C117.9656,33.704 115.7466,35.404 113.3236,35.066 C109.7176,34.582 107.3026,38.049 106.4306,39.566 C105.3316,41.48 99.1616,51.639 85.6576,63.544 C84.8176,64.284 83.7766,64.647 82.7406,64.647" id="Fill-3"></path>
                <path d="M8.437,139.4605 C7.171,139.4605 5.916,138.9205 5.043,137.8725 C3.482,135.9995 3.736,133.2165 5.608,131.6555 C9.977,128.0145 18.824,122.3135 21.853,120.7985 C24.035,119.7075 26.685,120.5935 27.775,122.7725 C28.865,124.9525 27.982,127.6045 25.801,128.6945 C23.515,129.8375 15.167,135.1815 11.26,138.4375 C10.435,139.1245 9.433,139.4605 8.437,139.4605" id="Fill-5"></path>
                <path d="M119.4096,97.5826 C121.1636,99.2246 123.2006,98.5196 125.0686,96.7336 C137.8576,84.5106 151.4056,65.4156 155.9106,55.4786 C156.8726,53.3566 158.8266,52.1756 160.9186,53.0176 C163.3806,54.0076 163.3416,58.2386 161.1166,62.8366 C155.2316,75.0036 147.0116,88.4006 130.8266,105.1516 C129.2686,106.7636 129.4976,108.8856 130.8966,110.1456 C132.3266,111.4346 134.6456,111.3496 136.8106,109.1426 C145.2206,100.5676 150.8736,93.9046 155.7406,87.0576 C156.9856,85.2456 158.4906,84.5516 159.9846,84.8506 C162.1066,85.2736 162.4466,87.3116 161.7966,89.7726 C160.7466,93.7436 149.5726,108.3926 145.1586,113.3146 C133.1626,126.6946 121.1636,134.0276 98.0746,146.0246 C90.0186,150.2106 83.9906,154.2266 80.3346,160.3966 C77.0146,166.0026 76.0236,167.8376 75.6816,168.5456 C74.3656,171.2696 75.4116,174.7106 78.1416,176.0146 C78.9036,176.3776 79.7026,176.5486 80.4876,176.5486 C82.6216,176.5486 84.6456,175.2826 85.5116,173.1886 C85.5416,173.1156 85.3366,173.2746 89.6836,165.9346 C91.7806,162.3946 96.3126,157.1236 103.2806,153.9476 C126.3696,143.4216 135.8296,135.0946 149.2326,121.6906 C155.3446,115.5786 163.7966,102.4766 166.0976,98.6026 C172.5486,87.7356 169.1606,78.4256 163.3386,76.8436 C162.8576,76.7136 162.6226,76.1766 162.8736,75.7466 C167.3836,68.0136 169.4386,62.6786 170.2846,58.5346 C171.4326,52.9126 169.8406,46.0856 162.1226,44.4216 C161.7116,44.3326 161.4666,43.9086 161.5776,43.5036 C162.0626,41.7206 162.5436,39.4736 162.8716,37.9926 C164.4896,30.6906 159.8716,24.0706 154.3256,22.8826 C150.4236,22.0466 146.9526,22.9396 143.9186,25.0536 C143.4956,25.3476 142.9296,25.2666 142.5776,24.8906 C141.3776,23.6026 139.4556,22.2496 136.8106,22.2036 C131.9726,22.1186 127.2176,23.6006 123.7386,31.0316 C121.2486,36.3516 117.5416,43.4816 106.6766,55.5356 C96.6016,66.7116 82.5686,77.6056 73.9096,83.2936 C72.3916,84.2916 70.2606,84.0586 70.5146,82.0196 C70.9196,78.7796 74.3926,57.0216 74.9846,50.6126 C75.9476,40.1996 70.3456,35.4456 64.0626,34.5976 C58.8926,33.8976 51.0476,35.3896 46.7466,47.1606 C44.2256,54.0596 38.9726,65.3966 34.5226,83.6616 C31.3936,96.5076 30.8736,111.4826 33.7386,128.6916 C33.9116,129.7306 33.7196,130.7976 33.1716,131.6976 C29.7436,137.3406 24.7216,144.7666 21.9226,151.2366 C20.7996,153.8336 21.7396,156.9646 24.2236,158.3196 C25.0586,158.7746 25.9526,158.9896 26.8316,158.9896 C28.8696,158.9896 30.8236,157.8376 31.7496,155.8716 C33.4056,152.3596 36.8396,145.7606 38.1806,143.0206 C40.5156,138.2506 42.0586,135.0996 42.6896,133.1166 C43.2656,131.3046 43.6056,129.2106 42.5626,124.4496 C40.8046,116.4286 40.1906,101.3646 43.4596,88.0876 C47.7976,70.4686 55.1566,50.7756 56.4696,47.5246 C57.7816,44.2736 59.6486,43.2556 61.5166,43.4256 C63.3846,43.5956 66.9496,44.5006 65.9306,51.1216 C64.0996,63.0196 61.5166,78.1156 60.6676,83.2086 C60.2526,85.7026 59.7716,91.5296 64.3746,94.1976 C67.9686,96.2816 71.9196,95.1216 76.2866,92.2066 C86.1126,85.6476 103.0526,72.2976 113.6936,60.3466 C124.8616,47.8036 128.4216,40.3356 131.2936,33.5786 C132.6026,30.4986 135.9626,30.5226 137.1506,30.8616 C138.3396,31.2016 139.7816,32.8136 138.7636,36.2096 C136.2886,44.4586 126.0876,63.3456 106.4496,81.0586 C104.2216,83.0676 104.5366,85.4416 105.6736,86.6806 C106.7396,87.8426 108.8066,88.6646 111.0906,86.7176 C128.7466,71.6646 138.8196,53.6686 143.3466,44.0476 C145.6106,39.2386 146.4666,36.3796 147.2236,34.1726 C148.1856,31.3716 150.3376,30.3766 151.8366,30.6916 C153.9866,31.1446 155.4006,33.3526 154.7226,36.9746 C154.1316,40.1226 152.3206,45.2716 149.9116,50.3866 C144.2546,62.3966 132.3026,78.4726 119.4096,92.2756 C118.0306,93.7516 117.7106,95.9936 119.4096,97.5826" id="Fill-7"></path>
                <path d="M39.5991,37.7691 C40.2831,37.1681 40.0151,36.3971 39.8241,35.7861 C38.8721,32.7491 33.4551,20.0591 32.0371,17.5111 C31.3241,16.2311 30.4181,16.0501 29.4491,16.4221 C28.1681,16.9121 26.5951,18.0851 24.1771,20.2071 C21.7591,22.3281 20.3911,23.7361 19.7391,24.9411 C19.2451,25.8541 19.3061,26.7751 20.4831,27.6481 C22.8241,29.3861 34.7021,36.4091 37.5881,37.7471 C38.1691,38.0161 38.9001,38.3811 39.5831,37.7821 L39.5991,37.7691 Z" id="Fill-9"></path>
                <path d="M34.9164,46.0982 C34.7594,45.2022 33.9614,45.0302 33.3394,44.8752 C30.2514,44.1112 16.5934,42.1442 13.6794,42.0332 C12.2154,41.9772 11.5904,42.6562 11.4034,43.6772 C11.1564,45.0252 11.3424,46.9802 11.8974,50.1482 C12.4534,53.3162 12.9454,55.2162 13.6364,56.4002 C14.1594,57.2972 14.9784,57.7232 16.3354,57.1712 C19.0374,56.0752 31.2104,49.5762 33.8534,47.8052 C34.3854,47.4492 35.0774,47.0142 34.9204,46.1192 L34.9164,46.0982 Z" id="Fill-11"></path>
                <path d="M137.4916,150.0728 C136.5846,150.1348 136.3276,150.9098 136.1086,151.5108 C135.0196,154.5008 131.6136,167.8728 131.1926,170.7588 C130.9816,172.2078 131.5906,172.9008 132.5876,173.1958 C133.9006,173.5838 135.8636,173.6078 139.0726,173.3908 C142.2816,173.1758 144.2236,172.8878 145.4736,172.3278 C146.4226,171.9018 146.9316,171.1338 146.5286,169.7248 C145.7246,166.9228 140.5556,154.1278 139.0756,151.3118 C138.7776,150.7448 138.4196,150.0108 137.5126,150.0718 L137.4916,150.0728 Z" id="Fill-13"></path>
                <path d="M145.2113,143.8736 C144.7913,144.6806 145.3203,145.3026 145.7213,145.8026 C147.7093,148.2866 157.3633,158.1446 159.6103,160.0046 C160.7393,160.9376 161.6483,160.7776 162.4173,160.0796 C163.4323,159.1596 164.4723,157.4946 165.9553,154.6406 C167.4393,151.7866 168.2023,149.9776 168.3723,148.6186 C168.5013,147.5876 168.1093,146.7526 166.6963,146.3646 C163.8853,145.5956 150.2683,143.3626 147.0923,143.1636 C146.4523,143.1236 145.6403,143.0486 145.2203,143.8546 L145.2113,143.8736 Z" id="Fill-15"></path>
            </g>
        </g>
    </g>
</svg>
