<?xml version="1.0" encoding="UTF-8"?>
<svg enable-background="new 0 0 56 56" version="1.1" viewBox="0 0 56 56" xml:space="preserve" xmlns="http://www.w3.org/2000/svg">
<path d="M28,56C12.6,56,0,43.4,0,28S12.6,0,28,0s28,12.6,28,28S43.4,56,28,56z M28,2.8C14.1,2.8,2.8,14.1,2.8,28S14.1,53.2,28,53.2  S53.2,41.9,53.2,28S41.9,2.8,28,2.8z"/>
<path d="M38,33.8H27.8c-3.1,0-5.6-2.5-5.6-5.6V18c0-3.1,2.5-5.6,5.6-5.6H38c3.1,0,5.6,2.5,5.6,5.6v10.3C43.6,31.3,41.1,33.8,38,33.8  z M27.8,14.2c-2.1,0-3.7,1.7-3.7,3.7v10.3c0,2.1,1.7,3.7,3.7,3.7H38c2.1,0,3.7-1.7,3.7-3.7V18c0-2.1-1.7-3.7-3.7-3.7H27.8z"/>
<path d="M28.2,43.6H18c-3.1,0-5.6-2.5-5.6-5.6V27.8c0-3.1,2.5-5.6,5.6-5.6h10.3c3.1,0,5.6,2.5,5.6,5.6V38  C33.8,41.1,31.3,43.6,28.2,43.6z M18,24c-2.1,0-3.7,1.7-3.7,3.7V38c0,2.1,1.7,3.7,3.7,3.7h10.3c2.1,0,3.7-1.7,3.7-3.7V27.8  c0-2.1-1.7-3.7-3.7-3.7H18z"/>
</svg>
